<?xml version="1.0" standalone="no"?>
<svg viewBox="0 0 200 200" xmlns="http://www.w3.org/2000/svg">
  <path fill="#FF0066" d="M44.3,-73.5C58,-68.7,70.3,-58.2,71.8,-45C73.3,-31.8,64,-15.9,62.3,-1C60.6,14,66.6,27.9,62.5,36.6C58.3,45.2,44.1,48.5,32,56.7C19.9,65,10,78.1,-1.2,80.1C-12.3,82.1,-24.6,73,-34.9,63.8C-45.3,54.5,-53.7,45.2,-61.1,34.5C-68.5,23.9,-74.8,11.9,-77.8,-1.7C-80.8,-15.4,-80.4,-30.8,-74.7,-44.4C-69.1,-58.1,-58.2,-70.1,-44.9,-75.1C-31.6,-80.2,-15.8,-78.4,-0.3,-78C15.2,-77.5,30.5,-78.4,44.3,-73.5Z" transform="translate(100 100)" />
</svg>
